<svg width="21" height="20" viewBox="0 0 21 20" fill="none" xmlns="http://www.w3.org/2000/svg">
<path d="M10.5004 1.60547C14.9076 1.60547 18.4844 5.18231 18.4844 9.5895C18.4844 13.9967 14.9076 17.5735 10.5004 17.5735C6.0932 17.5735 2.51636 13.9967 2.51636 9.5895C2.51636 5.18231 6.0932 1.60547 10.5004 1.60547ZM10.5004 3.20228C6.97145 3.20228 4.11316 6.06056 4.11316 9.5895C4.11316 13.1184 6.97145 15.9767 10.5004 15.9767C14.0293 15.9767 16.8876 13.1184 16.8876 9.5895C16.8876 6.06056 14.0293 3.20228 10.5004 3.20228ZM10.5004 5.59748C11.9535 5.59748 13.2253 6.37433 13.9239 7.53601L12.5555 8.35756C12.3401 7.99848 12.0344 7.70212 11.6688 7.49804C11.3032 7.29396 10.8904 7.18929 10.4717 7.19447C10.0531 7.19965 9.64304 7.3145 9.28259 7.52756C8.92213 7.74062 8.62382 8.04445 8.41741 8.40876C8.211 8.77307 8.1037 9.18512 8.1062 9.60383C8.10871 10.0225 8.22093 10.4333 8.43168 10.7951C8.64244 11.1569 8.94436 11.4571 9.30734 11.6659C9.67032 11.8746 10.0817 11.9845 10.5004 11.9847C10.9141 11.985 11.3208 11.878 11.6808 11.6743C12.0408 11.4706 12.3419 11.177 12.5547 10.8222L13.9239 11.643C13.4753 12.3924 12.7931 12.9739 11.9822 13.2984C11.1712 13.6228 10.2762 13.6723 9.43444 13.4392C8.59267 13.2061 7.8506 12.7033 7.32206 12.0079C6.79351 11.3125 6.50767 10.463 6.50837 9.5895C6.50837 7.38591 8.2968 5.59748 10.5004 5.59748Z" fill="#282828"/>
</svg>
