<svg width="32" height="33" viewBox="0 0 32 33" fill="none" xmlns="http://www.w3.org/2000/svg">
<path fill-rule="evenodd" clip-rule="evenodd" d="M31.9993 16.0908C31.9993 24.9274 24.8359 32.0908 15.9993 32.0908C7.16277 32.0908 -0.000671387 24.9274 -0.000671387 16.0908C-0.000671387 7.25426 7.16277 0.0908203 15.9993 0.0908203C24.8359 0.0908203 31.9993 7.25426 31.9993 16.0908ZM6.50498 12.3823C6.50498 9.16044 9.1168 6.54862 12.3386 6.54862H19.7075C22.9293 6.54862 25.5411 9.16043 25.5411 12.3823V19.7511C25.5411 22.9729 22.9293 25.5848 19.7075 25.5848H12.3386C9.11679 25.5848 6.50498 22.9729 6.50498 19.7511V12.3823ZM12.3386 8.39083C10.1342 8.39083 8.34719 10.1779 8.34719 12.3823V19.7511C8.34719 21.9555 10.1342 23.7426 12.3386 23.7426H19.7075C21.9118 23.7426 23.6989 21.9555 23.6989 19.7511V12.3823C23.6989 10.1779 21.9118 8.39083 19.7075 8.39083H12.3386ZM13.26 16.0663C13.26 14.5401 14.4971 13.3029 16.0233 13.3029C17.5495 13.3029 18.7866 14.5401 18.7866 16.0663C18.7866 16.799 18.4954 17.502 17.9772 18.0202C17.459 18.5384 16.7561 18.8296 16.0233 18.8296C14.4971 18.8296 13.26 17.5924 13.26 16.0663ZM16.0233 11.4607C13.4796 11.4607 11.4177 13.5226 11.4177 16.0663C11.4177 18.6099 13.4796 20.6718 16.0233 20.6718C17.2447 20.6718 18.4162 20.1865 19.2798 19.3228C20.1435 18.4591 20.6288 17.2877 20.6288 16.0663C20.6288 13.5226 18.5669 11.4607 16.0233 11.4607ZM21.8064 12.0196C21.584 12.2434 21.2758 12.382 20.9353 12.382C20.2571 12.382 19.7072 11.8321 19.7072 11.1538C19.7072 10.8133 19.8458 10.5052 20.0696 10.2827C20.2916 10.062 20.5976 9.92556 20.9355 9.92556C21.6138 9.92556 22.1636 10.4754 22.1636 11.1537C22.1636 11.4915 22.0272 11.7975 21.8064 12.0196Z" fill="#336DBC"/>
</svg>
