<svg width="32" height="33" viewBox="0 0 32 33" fill="none" xmlns="http://www.w3.org/2000/svg">
<g clip-path="url(#clip0_148_201)">
<path d="M16.0003 0.0900879C7.16281 0.0900879 0.000305176 7.25259 0.000305176 16.0901C0.000305176 24.9276 7.16281 32.0901 16.0003 32.0901C24.8378 32.0901 32.0003 24.9276 32.0003 16.0901C32.0003 7.25259 24.8378 0.0900879 16.0003 0.0900879ZM11.5253 22.7838H8.40656V12.8026H11.5253V22.7838ZM9.88156 11.5526H9.85655C8.7253 11.5526 7.99406 10.7901 7.99406 9.82134C7.99406 8.83384 8.75031 8.09009 9.9003 8.09009C11.0503 8.09009 11.7566 8.83384 11.7816 9.82134C11.7878 10.7838 11.0566 11.5526 9.88156 11.5526ZM24.0003 22.7838H20.4628V17.6213C20.4628 16.2713 19.9128 15.3463 18.6941 15.3463C17.7628 15.3463 17.2441 15.9713 17.0066 16.5713C16.9191 16.7838 16.9316 17.0838 16.9316 17.3901V22.7838H13.4253C13.4253 22.7838 13.4691 13.6338 13.4253 12.8026H16.9316V14.3713C17.1378 13.6838 18.2566 12.7088 20.0441 12.7088C22.2628 12.7088 24.0003 14.1463 24.0003 17.2338V22.7838Z" fill="#336DBC"/>
</g>
<defs>
<clipPath id="clip0_148_201">
<rect width="32" height="32" fill="white" transform="translate(0 0.0900879)"/>
</clipPath>
</defs>
</svg>
