<svg width="32" height="33" viewBox="0 0 32 33" fill="none" xmlns="http://www.w3.org/2000/svg">
<g clip-path="url(#clip0_148_203)">
<path d="M15.9997 0.138428C7.19091 0.138428 -0.0162964 7.32962 -0.0162964 16.1865C-0.0162964 24.1945 5.84556 30.8412 13.5012 32.0424V20.8312H9.43315V16.1865H13.5012V12.6469C13.5012 8.62692 15.8876 6.41671 19.5553 6.41671C21.301 6.41671 23.1268 6.72101 23.1268 6.72101V10.677H21.1088C19.1228 10.677 18.4982 11.9102 18.4982 13.1755V16.1865H22.9507L22.2299 20.8312H18.4982V32.0424C22.2722 31.4462 25.7089 29.5206 28.1877 26.6129C30.6665 23.7054 32.0244 20.0073 32.0157 16.1865C32.0157 7.32962 24.8085 0.138428 15.9997 0.138428Z" fill="#336DBC"/>
</g>
<defs>
<clipPath id="clip0_148_203">
<rect width="32" height="31.9039" fill="white" transform="translate(0 0.138184)"/>
</clipPath>
</defs>
</svg>

