<svg width="32" height="33" viewBox="0 0 32 33" fill="none" xmlns="http://www.w3.org/2000/svg">
<g clip-path="url(#clip0_148_198)">
<path d="M16.0093 32.0546C24.8336 32.0546 31.9871 24.9012 31.9871 16.0769C31.9871 7.25261 24.8336 0.0991211 16.0093 0.0991211C7.18504 0.0991211 0.0315552 7.25261 0.0315552 16.0769C0.0315552 24.9012 7.18504 32.0546 16.0093 32.0546Z" fill="#336DBC"/>
<path d="M6.16697 6.81982L13.8041 17.0313L6.11884 25.3337H7.84863L14.5773 18.0646L20.0136 25.3337H25.8997L17.8327 14.548L24.9862 6.81982H23.2564L17.0599 13.5143L12.0531 6.81982H6.16697ZM8.7107 8.09385H11.4148L23.3557 24.0597H20.6516L8.7107 8.09385Z" fill="white"/>
</g>
<defs>
<clipPath id="clip0_148_198">
<rect width="32" height="32" fill="white" transform="translate(0 0.0900879)"/>
</clipPath>
</defs>
</svg>
